<?xml version="1.0" encoding="UTF-8"?>
<svg id="Capa_2" data-name="Capa 2" xmlns="http://www.w3.org/2000/svg" viewBox="0 0 258.7 97.16">
  <defs>
    <style>
      .cls-1 {
        fill: #ceb48a;
      }

      .cls-1, .cls-2 {
        stroke-width: 0px;
      }

      .cls-2 {
        fill: #6c786b;
      }
    </style>
  </defs>
  <g id="Capa_1-2" data-name="Capa 1">
    <path class="cls-2" d="m41.25.68h8.84l14.07,18.08V.68h9.38v34.2h-8.31l-14.61-18.76v18.76h-9.38V.68Z"/>
    <path class="cls-2" d="m78.43,17.88v-.1c0-9.82,7.92-17.79,18.47-17.79s18.37,7.87,18.37,17.69v.1c0,9.82-7.92,17.79-18.47,17.79s-18.37-7.87-18.37-17.69Zm27.17,0v-.1c0-4.93-3.57-9.23-8.79-9.23s-8.65,4.2-8.65,9.14v.1c0,4.93,3.57,9.23,8.75,9.23s8.7-4.2,8.7-9.14Z"/>
    <path class="cls-2" d="m120.2.68h16.17c5.23,0,8.84,1.37,11.14,3.71,2,1.95,3.03,4.59,3.03,7.96v.1c0,5.23-2.79,8.7-7.04,10.51l8.16,11.92h-10.94l-6.89-10.36h-4.15v10.36h-9.48V.68Zm15.73,16.42c3.22,0,5.08-1.56,5.08-4.06v-.1c0-2.69-1.95-4.06-5.13-4.06h-6.21v8.21h6.25Z"/>
    <path class="cls-2" d="m163.68,8.99h-10.26V.68h30v8.31h-10.26v25.9h-9.48V8.99Z"/>
    <path class="cls-2" d="m187.57.68h27.51v8.06h-18.13v5.18h16.42v7.48h-16.42v5.42h18.37v8.06h-27.75V.68Z"/>
    <g>
      <path class="cls-2" d="m9.19,41.24h11.29l4.1,12.02,10.55-12.02h12.56l-9.19,34.2h-11.38l4.54-16.96-11.14,12.17h-.2l-4.59-12.17-4.54,16.96H0l9.19-34.2Z"/>
      <path class="cls-2" d="m63.17,40.99h11.34l5.18,34.45h-12.17l-.59-4.59h-11.97l-2.98,4.59h-12.46l23.65-34.45Zm3.13,21.74l-.93-8.31-5.33,8.31h6.25Z"/>
      <path class="cls-2" d="m89.7,41.24h12.12c6.65,0,10.8,1.81,13.39,4.4,2.54,2.54,3.71,5.86,3.71,10.02,0,5.13-1.95,9.82-5.62,13.49-4.1,4.1-10.02,6.3-17.93,6.3h-14.85l9.19-34.2Zm6.94,24.24c3.47,0,6.45-1.03,8.21-2.78,1.42-1.42,2.44-3.71,2.44-5.81,0-1.86-.54-3.08-1.42-3.96-1.07-1.07-2.78-1.71-5.52-1.71h-1.91l-3.81,14.27h2Z"/>
      <path class="cls-2" d="m126.15,41.24h29.17l-2.54,9.38h-17.93l-.93,3.47h16.71l-2.2,8.26h-16.71l-1.03,3.71h18.18l-2.49,9.38h-29.41l9.19-34.2Z"/>
      <path class="cls-2" d="m159.03,41.24h13.34c6.3,0,10.31,1.37,12.61,3.66,1.91,1.91,2.69,4.45,2.69,7.13,0,5.33-2.79,9.92-9.53,12.02l4.74,11.38h-12.31l-3.81-9.77h-2.83l-2.64,9.77h-11.43l9.19-34.2Zm11.19,16.27c3.81,0,5.81-1.76,5.81-3.91,0-.68-.24-1.32-.73-1.81-.64-.64-1.76-.98-3.37-.98h-4.06l-1.81,6.69h4.15Z"/>
      <path class="cls-2" d="m205.64,40.99h11.34l5.18,34.45h-12.17l-.59-4.59h-11.97l-2.98,4.59h-12.46l23.65-34.45Zm3.13,21.74l-.93-8.31-5.33,8.31h6.25Z"/>
      <path class="cls-2" d="m222.45,69.92l6.55-7.82c3.91,3.27,7.92,4.84,11.53,4.84,1.47,0,2.49-.54,2.49-1.51,0-1.07-.64-1.42-5.62-3.27-6.35-2.35-9.33-4.59-9.33-9.63,0-6.6,6.06-11.97,15.39-11.97,6.11,0,11.53,1.95,15.24,5.13l-6.55,7.82c-2.59-2.1-6.25-3.81-9.87-3.81-1.47,0-2.49.39-2.49,1.37,0,1.03.73,1.22,5.47,2.98,5.81,2.15,9.53,4.59,9.53,9.82,0,6.89-5.67,12.26-15.49,12.26-6.79,0-12.7-2.44-16.86-6.21Z"/>
    </g>
    <g>
      <path class="cls-1" d="m73.67,91.21v-.03c0-1.51,1.24-2.74,2.75-2.74s2.75,1.22,2.75,2.74v.03c0,1.51-1.24,2.74-2.75,2.74s-2.75-1.22-2.75-2.74Z"/>
      <path class="cls-1" d="m81.5,85.53h4.4c4.07,0,6.43,2.35,6.43,5.64v.03c0,3.29-2.39,5.73-6.5,5.73h-4.33v-11.4Zm4.45,8.6c1.89,0,3.14-1.04,3.14-2.88v-.03c0-1.82-1.25-2.88-3.14-2.88h-1.29v5.8h1.29Z"/>
      <path class="cls-1" d="m93.96,85.53h9.17v2.69h-6.04v1.73h5.47v2.49h-5.47v1.81h6.12v2.69h-9.25v-11.4Z"/>
      <path class="cls-1" d="m103.96,95.24l1.76-2.1c1.12.9,2.38,1.37,3.7,1.37.85,0,1.3-.29,1.3-.78v-.03c0-.47-.37-.73-1.92-1.09-2.43-.55-4.3-1.24-4.3-3.58v-.03c0-2.12,1.68-3.65,4.41-3.65,1.94,0,3.45.52,4.69,1.51l-1.58,2.23c-1.04-.73-2.18-1.12-3.19-1.12-.77,0-1.14.33-1.14.73v.03c0,.52.39.75,1.97,1.11,2.62.57,4.25,1.42,4.25,3.55v.03c0,2.33-1.84,3.71-4.61,3.71-2.02,0-3.94-.64-5.34-1.89Z"/>
      <path class="cls-1" d="m115.44,85.53h4.4c4.07,0,6.43,2.35,6.43,5.64v.03c0,3.29-2.39,5.73-6.5,5.73h-4.33v-11.4Zm4.45,8.6c1.89,0,3.14-1.04,3.14-2.88v-.03c0-1.82-1.25-2.88-3.14-2.88h-1.29v5.8h1.29Z"/>
      <path class="cls-1" d="m127.9,85.53h9.17v2.69h-6.04v1.73h5.47v2.49h-5.47v1.81h6.12v2.69h-9.25v-11.4Z"/>
      <path class="cls-1" d="m144.92,88.4l-1.92.44-.6-2.44,3.34-.94h2.3v11.48h-3.11v-8.53Z"/>
      <path class="cls-1" d="m150,95.81l1.48-2.18c.78.62,1.53.91,2.44.91,1.3,0,2-.91,2.15-2.38-.59.55-1.4.93-2.41.93-2.22,0-3.83-1.37-3.83-3.6v-.03c0-2.52,1.94-4.15,4.54-4.15,1.66,0,2.64.47,3.5,1.34.83.81,1.37,2.12,1.37,4.22v.03c0,3.73-1.86,6.27-5.28,6.27-1.69,0-2.93-.54-3.97-1.35Zm6.12-6.47v-.03c0-.88-.64-1.55-1.63-1.55s-1.6.65-1.6,1.53v.03c0,.86.63,1.5,1.63,1.5s1.6-.65,1.6-1.48Z"/>
      <path class="cls-1" d="m160.36,93.79v-.03c0-1.38.73-2.22,1.95-2.74-.88-.49-1.56-1.24-1.56-2.48v-.03c0-1.82,1.74-3.18,4.3-3.18s4.3,1.35,4.3,3.18v.03c0,1.24-.68,1.99-1.56,2.48,1.16.54,1.95,1.3,1.95,2.72v.03c0,2.04-1.95,3.36-4.69,3.36s-4.69-1.35-4.69-3.34Zm6.34-.31v-.03c0-.73-.68-1.24-1.65-1.24s-1.64.5-1.64,1.24v.03c0,.68.59,1.29,1.64,1.29s1.65-.6,1.65-1.29Zm-.24-4.56v-.03c0-.64-.54-1.21-1.4-1.21s-1.4.55-1.4,1.19v.03c0,.72.55,1.25,1.4,1.25s1.4-.52,1.4-1.24Z"/>
      <path class="cls-1" d="m170.47,95.14l1.99-1.99c.81.83,1.68,1.3,2.72,1.3.9,0,1.47-.46,1.47-1.16v-.03c0-.73-.67-1.17-1.86-1.17h-1.34l-.46-1.65,2.62-2.36h-4.37v-2.56h8.24v2.26l-2.72,2.33c1.63.36,2.95,1.27,2.95,3.21v.03c0,2.31-1.86,3.79-4.4,3.79-2.2,0-3.75-.8-4.85-2.02Z"/>
      <path class="cls-1" d="m181.61,91.21v-.03c0-1.51,1.24-2.74,2.75-2.74s2.75,1.22,2.75,2.74v.03c0,1.51-1.24,2.74-2.75,2.74s-2.75-1.22-2.75-2.74Z"/>
    </g>
  </g>
</svg>