<?xml version="1.0" encoding="UTF-8"?>
<svg id="Capa_2" data-name="Capa 2" xmlns="http://www.w3.org/2000/svg" viewBox="0 0 4119.17 553.55">
  <defs>
    <style>
      .cls-1 {
        fill: #ceb48a;
      }

      .cls-1, .cls-2 {
        stroke-width: 0px;
      }

      .cls-2 {
        fill: #6c786b;
      }
    </style>
  </defs>
  <g id="Capa_1-2" data-name="Capa 1">
    <g>
      <path class="cls-1" d="m617.56,92.97l68.16.06,108.35,139.43.11-139.34,72.31.06-.22,263.62-64.02-.05-112.48-144.71-.12,144.62-72.31-.06.22-263.62Z"/>
      <path class="cls-1" d="m904.01,225.77v-.75c.06-75.7,61.12-137.03,142.47-136.97,81.35.07,141.56,60.75,141.49,136.45v.75c-.06,75.7-61.12,137.03-142.47,136.97-81.35-.07-141.55-60.75-141.49-136.45Zm209.39.17v-.75c.03-38.04-27.43-71.2-67.73-71.23-39.92-.03-66.69,32.33-66.72,70.37v.75c-.03,38.04,27.43,71.2,67.35,71.23,40.3.03,67.06-32.33,67.09-70.37Z"/>
      <path class="cls-1" d="m1226.09,93.47l124.65.1c40.29.03,68.16,10.6,85.84,28.69,15.43,15.07,23.32,35.42,23.3,61.4v.75c-.03,40.3-21.52,67.02-54.3,80.93l62.81,91.94-84.36-.07-53.04-79.88h-.75s-31.26-.03-31.26-.03l-.07,79.84-73.06-.06.22-263.62Zm121.16,126.64c24.85.02,39.17-12.02,39.19-31.23v-.75c.02-20.71-15.04-31.27-39.52-31.29l-47.83-.04-.05,63.27,48.21.04Z"/>
      <path class="cls-1" d="m1561.18,157.77l-79.09-.07.05-64.02,231.23.19-.05,64.02-79.09-.07-.16,199.6-73.06-.06.16-199.6Z"/>
      <path class="cls-1" d="m1745.37,93.9l212.02.17-.05,62.14-139.72-.12-.03,39.92,126.53.1-.05,57.62-126.53-.1-.03,41.8,141.6.12-.05,62.14-213.91-.18.22-263.62Z"/>
      <g>
        <path class="cls-2" d="m2196.06,92.3l87,.07,31.56,92.67,81.42-92.58,96.79.08-71.02,263.56-87.75-.07,35.13-130.65-85.94,93.7h-1.51s-35.32-93.8-35.32-93.8l-35.14,130.65-86.24-.07,71.02-263.56Z"/>
        <path class="cls-2" d="m2612.17,90.76l87.37.07,39.7,265.54-93.77-.08-4.49-35.4-92.27-.08-23,35.38-96.03-.08,182.49-265.35Zm23.96,167.61l-7.1-64.03-41.1,63.99,48.21.04Z"/>
        <path class="cls-2" d="m2816.64,92.81l93.4.08c51.22.04,83.22,14,103.16,33.98,19.57,19.6,28.59,45.22,28.56,77.23-.03,39.54-15.13,75.68-43.4,103.91-31.66,31.61-77.24,48.52-138.25,48.47l-114.49-.09,71.02-263.56Zm53.33,186.84c26.74.02,49.72-7.87,63.28-21.41,10.93-10.91,18.86-28.61,18.87-44.8.01-14.31-4.12-23.73-10.9-30.51-8.28-8.29-21.45-13.2-42.55-13.22h-14.68s-29.46,109.93-29.46,109.93h15.44Z"/>
        <path class="cls-2" d="m3097.55,93.05l224.83.19-19.64,72.29-138.22-.11-7.18,26.73,128.8.11-17,63.63-128.8-.11-7.93,28.62,140.09.12-19.27,72.29-226.71-.19,71.02-263.56Z"/>
        <path class="cls-2" d="m3350.98,93.25l102.81.08c48.58.04,79.45,10.61,97.14,28.32,14.68,14.7,20.69,34.29,20.67,55-.03,41.05-21.53,76.43-73.51,92.59l36.46,87.78-94.9-.08-29.32-75.35-21.84-.02-20.4,75.3-88.13-.07,71.02-263.56Zm86.14,125.48c29.37.02,44.82-13.52,44.84-30.09,0-5.27-1.88-10.17-5.64-13.94-4.89-4.9-13.55-7.54-25.98-7.55l-31.26-.03-13.98,51.58,32.01.03Z"/>
        <path class="cls-2" d="m3710.24,91.67l87.37.07,39.7,265.54-93.77-.08-4.49-35.4-92.27-.08-23,35.38-96.03-.08,182.49-265.35Zm23.96,167.61l-7.1-64.03-41.1,63.99,48.21.04Z"/>
        <path class="cls-2" d="m3839.58,314.72l50.51-60.21c30.11,25.26,60.98,37.33,88.85,37.36,11.3,0,19.21-4.13,19.22-11.66,0-8.28-4.89-10.93-43.29-25.27-48.94-18.12-71.9-35.46-71.87-74.25.04-50.84,46.77-92.23,118.7-92.17,47.08.04,88.87,15.14,117.47,39.64l-50.51,60.21c-19.95-16.21-48.18-29.42-76.05-29.44-11.3,0-19.21,3-19.22,10.53,0,7.91,5.64,9.42,42.16,23.01,44.8,16.61,73.41,35.46,73.37,75.76-.04,53.1-43.76,94.49-119.46,94.43-52.35-.04-97.9-18.91-129.89-47.94Z"/>
      </g>
      <g>
        <path class="cls-1" d="m2551.83,507.08v-.25c0-11.68,9.56-21.08,21.23-21.07,11.67,0,21.2,9.43,21.19,21.11v.25c0,11.68-9.56,21.08-21.23,21.07-11.68,0-21.21-9.43-21.2-21.11Z"/>
        <path class="cls-1" d="m2612.24,463.32l33.89.03c31.38.03,49.57,18.12,49.55,43.48v.25c-.02,25.36-18.49,44.17-50.12,44.15l-33.39-.03.07-87.87Zm34.22,66.31c14.56.01,24.23-8.01,24.24-22.2v-.25c.01-14.06-9.64-22.23-24.21-22.24h-9.92s-.04,44.68-.04,44.68h9.92Z"/>
        <path class="cls-1" d="m2708.27,463.4l70.67.06-.02,20.71-46.57-.04v13.31s42.17.03,42.17.03l-.02,19.21-42.18-.03v13.93s47.19.04,47.19.04l-.02,20.71-71.3-.06.07-87.87Z"/>
        <path class="cls-1" d="m2785.27,538.28l13.57-16.18c8.66,6.91,18.32,10.56,28.49,10.57,6.53,0,10.04-2.25,10.05-6.02v-.25c0-3.64-2.88-5.65-14.8-8.42-18.7-4.28-33.13-9.57-33.12-27.64v-.25c.01-16.32,12.96-28.11,34.04-28.09,14.94.01,26.61,4.04,36.14,11.7l-12.19,17.19c-8.03-5.66-16.81-8.68-24.6-8.68-5.9,0-8.79,2.5-8.79,5.64v.25c0,4.02,3,5.78,15.18,8.55,20.21,4.41,32.75,10.95,32.74,27.39v.25c-.02,17.95-14.21,28.61-35.55,28.59-15.57-.01-30.38-4.92-41.17-14.6Z"/>
        <path class="cls-1" d="m2873.83,463.54l33.89.03c31.38.03,49.57,18.12,49.55,43.48v.25c-.02,25.36-18.49,44.17-50.12,44.15l-33.39-.03.07-87.87Zm34.22,66.31c14.56.01,24.23-8.01,24.24-22.2v-.25c.01-14.06-9.64-22.23-24.21-22.24h-9.92s-.04,44.68-.04,44.68h9.92Z"/>
        <path class="cls-1" d="m2969.86,463.62l70.67.06-.02,20.71-46.57-.04v13.31s42.17.03,42.17.03l-.02,19.21-42.18-.03v13.93s47.19.04,47.19.04l-.02,20.71-71.3-.06.07-87.87Z"/>
        <path class="cls-1" d="m3101,485.82l-14.81,3.38-4.63-18.83,25.74-7.26h17.7s-.07,88.52-.07,88.52l-23.98-.02.05-65.78Z"/>
        <path class="cls-1" d="m3140.12,542.97l11.43-16.81c6.02,4.78,11.8,7.04,18.83,7.05,10.04,0,15.45-7.02,16.58-18.31-4.52,4.27-10.8,7.15-18.58,7.14-17.07-.01-29.49-10.57-29.48-27.77v-.25c.02-19.46,14.97-32,35.05-31.98,12.8.01,20.34,3.66,26.98,10.32,6.4,6.28,10.53,16.33,10.52,32.52v.25c-.02,28.75-14.35,48.32-40.71,48.3-13.05-.01-22.59-4.16-30.62-10.44Zm47.24-49.8v-.25c0-6.78-4.89-11.93-12.54-11.94-7.66,0-12.3,5.01-12.31,11.79v.25c0,6.65,4.88,11.55,12.54,11.56,7.66,0,12.31-5.01,12.31-11.41Z"/>
        <path class="cls-1" d="m3219.97,527.47v-.25c0-10.67,5.66-17.07,15.08-21.08-6.77-3.77-12.05-9.55-12.04-19.09v-.25c.01-14.06,13.45-24.47,33.16-24.45s33.13,10.45,33.12,24.51v.25c0,9.54-5.29,15.31-12.07,19.07,8.91,4.15,15.06,10.06,15.05,20.98v.25c-.01,15.69-15.09,25.85-36.18,25.83-21.09-.02-36.14-10.45-36.13-25.76Zm48.84-2.34v-.25c0-5.65-5.27-9.55-12.67-9.55-7.41,0-12.68,3.88-12.68,9.53v.25c0,5.27,4.51,9.92,12.67,9.93,8.16,0,12.69-4.63,12.69-9.91Zm-1.86-35.15v-.25c0-4.9-4.13-9.29-10.79-9.3-6.66,0-10.8,4.26-10.8,9.16v.25c0,5.52,4.26,9.67,10.79,9.67,6.53,0,10.8-4.01,10.81-9.53Z"/>
        <path class="cls-1" d="m3297.9,537.95l15.33-15.3c6.27,6.41,12.92,10.05,20.95,10.06,6.91,0,11.31-3.5,11.31-8.9v-.25c0-5.65-5.14-9.04-14.3-9.05h-10.3s-3.5-12.69-3.5-12.69l20.23-18.19-33.64-.03.02-19.71,63.52.05v17.45s-21,17.94-21,17.94c12.55,2.77,22.72,9.81,22.7,24.75v.25c-.01,17.83-14.34,29.24-33.92,29.22-16.95-.01-28.87-6.17-37.4-15.6Z"/>
        <path class="cls-1" d="m3383.79,507.77v-.25c0-11.68,9.56-21.08,21.23-21.07,11.67,0,21.2,9.43,21.19,21.11v.25c0,11.68-9.56,21.08-21.23,21.07-11.68,0-21.21-9.43-21.2-21.11Z"/>
      </g>
      <rect class="cls-2" x=".19" y=".19" width="476.6" height="476.6" rx="12" ry="12"/>
      <path class="cls-1" d="m57.41,156.99l182.12-91.06,181.97,91.36-.15,182.41-182.12,90.69-38.65-19.37.03-35.75-36.1-17.54.03-32.83-68.62,33.87-38.65-19.37.15-182.41Zm35.73,21.55l-29.9-14.98-.14,172.2,29.9,14.98.09-107.26,35.74,17.91.02-29.19-35.74-17.91.03-35.75Zm146.38-106.04l-172.63,86.32,29.17,14.62,143.44-71.75,114.14,57.37-143.44,71.39,29.17,14.62,172.27-85.96-172.13-86.61Zm-2.95,37.57l-137.59,68.47-.02,29.19,137.59-68.84.02-28.82Zm-137.74,240.67l62.05-30.96-32.09-16.08.03-35.75-29.9-14.98-.08,97.77Zm4.13-138.26l28.81,14.62,136.87-68.11-29.17-14.62-136.5,68.11Zm169.3-19.56l.02-29.19-137.23,68.47-.02,29.19,137.23-68.47Zm-137.26,107.15l29.54,14.98.02-29.19-29.54-14.98-.02,29.19Zm65.72-64.88l-62.05,30.96,29.17,14.62,32.85-16.39.02-29.18Zm35.74,14.99l-29.9-14.98-.09,107.62-35.74-17.91-.02,28.82,35.74,17.91-.03,35.75,29.9,14.98.14-172.2Zm-65.72,64.89l29.93-14.93.02-29.19-29.93,14.93-.02,29.19Zm29.92-8.37l-26.28,13.11,26.25,13.15.02-26.27Zm77.44-116.68l62.05-30.96-97.73-48.97-.02,28.82,35.74,18.27-.03,32.83Zm-35.94,232.37l173.36-86.32.14-172.2-173.36,86.32-.14,172.2Z"/>
    </g>
  </g>
</svg>